<svg width="128" height="128" xmlns="http://www.w3.org/2000/svg">
  <rect width="128" height="128" fill="#2196F3" rx="20"/>
  <circle cx="64" cy="64" r="45" fill="white" opacity="0.2"/>
  <path d="M64 35 C70 35 75 40 75 46 L75 64 C75 70 70 75 64 75 C58 75 53 70 53 64 L53 46 C53 40 58 35 64 35 Z" fill="white"/>
  <path d="M64 80 L64 90" stroke="white" stroke-width="4" stroke-linecap="round"/>
  <path d="M50 90 L78 90" stroke="white" stroke-width="4" stroke-linecap="round"/>
  <path d="M45 55 C45 55 40 55 40 64 C40 75 50 85 64 85 C78 85 88 75 88 64 C88 55 83 55 83 55" 
        stroke="white" stroke-width="3" fill="none" stroke-linecap="round"/>
</svg>
